<?xml version="1.0" encoding="UTF-8"?>
<svg version="1.1" xmlns="http://www.w3.org/2000/svg" width="640" height="390">
<path d="M0 0 C1.31684532 -0.00143509 1.31684532 -0.00143509 2.66029358 -0.00289917 C4.51889111 -0.00358033 6.37749101 -0.00173052 8.23608398 0.00244141 C11.08257394 0.00778419 13.92890564 0.00249754 16.77539062 -0.00390625 C18.57942743 -0.00324533 20.38346414 -0.00196389 22.1875 0 C23.04069321 -0.00202423 23.89388641 -0.00404846 24.77293396 -0.00613403 C28.14901522 0.00726643 30.93521396 0.05783174 34.16015625 1.1328125 C33.57065388 6.8687641 31.41135037 11.61163014 29.09765625 16.8203125 C28.27805549 18.69765905 27.4590579 20.57526903 26.640625 22.453125 C26.22603027 23.39961914 25.81143555 24.34611328 25.38427734 25.32128906 C23.52259179 29.59715081 21.71369396 33.89466915 19.91015625 38.1953125 C19.57685303 38.98905273 19.2435498 39.78279297 18.90014648 40.60058594 C18.26703348 42.10888924 17.63428192 43.61734433 17.00195312 45.12597656 C16.28076174 46.84529012 15.55668552 48.5633931 14.83203125 50.28125 C12.89988155 54.87976628 11.01319006 59.49255694 9.18359375 64.1328125 C8.82974609 65.02750244 8.47589844 65.92219238 8.11132812 66.84399414 C7.40812015 68.62546498 6.7087328 70.40844997 6.01367188 72.19311523 C4.34284357 76.42519098 2.57597021 80.26185913 0.16015625 84.1328125 C-0.56627412 86.01508459 -0.56627412 86.01508459 -1.08984375 87.9453125 C-3.18886006 94.58847583 -6.16427926 100.87331144 -8.99536133 107.22802734 C-11.3432147 112.52376369 -13.53830689 117.86498019 -15.65234375 123.2578125 C-18.01082255 129.22237119 -20.58182815 135.05035611 -23.34765625 140.83984375 C-24.92314828 144.31664946 -26.3375885 147.83416024 -27.7421875 151.38256836 C-29.69723031 156.2810464 -31.74309722 161.14182004 -33.77734375 166.0078125 C-34.19435547 167.00683594 -34.61136719 168.00585938 -35.04101562 169.03515625 C-35.88237129 171.05076873 -36.72408587 173.06623142 -37.56616211 175.08154297 C-38.86856661 178.20162184 -40.16670633 181.32345624 -41.46484375 184.4453125 C-43.70425409 189.82147467 -45.99903176 195.17093659 -48.3125 200.515625 C-49.49083547 203.30626092 -50.62951254 206.10266188 -51.74609375 208.91796875 C-53.8236202 214.13814192 -56.04114792 219.29156869 -58.27734375 224.4453125 C-61.23416618 231.29446965 -64.09110129 238.14771802 -66.671875 245.1484375 C-68.8582224 250.73495727 -71.40324787 256.16812335 -73.875 261.6328125 C-74.20951172 262.3753125 -74.54402344 263.1178125 -74.88867188 263.8828125 C-75.56511378 265.38427893 -76.2448108 266.88428306 -76.92773438 268.3828125 C-78.97541316 272.94553197 -80.71516294 277.51626623 -82.22436523 282.28515625 C-82.83984375 284.1328125 -82.83984375 284.1328125 -83.83984375 286.1328125 C-88.27627903 287.18269404 -92.60086431 287.26155205 -97.14453125 287.265625 C-98.1687468 287.26706009 -98.1687468 287.26706009 -99.21365356 287.26852417 C-100.65073743 287.26920112 -102.08782444 287.26738086 -103.52490234 287.26318359 C-105.70156885 287.25784506 -107.87802747 287.26313654 -110.0546875 287.26953125 C-111.45963586 287.26887006 -112.8645841 287.26758805 -114.26953125 287.265625 C-115.53007324 287.26449707 -116.79061523 287.26336914 -118.08935547 287.26220703 C-122.07552228 287.12468142 -125.89195761 286.68321003 -129.83984375 286.1328125 C-129.23351927 280.54014794 -127.24003017 275.86586536 -125.02734375 270.7578125 C-124.68380859 269.94570313 -124.34027344 269.13359375 -123.98632812 268.296875 C-122.33243744 264.42435047 -120.60958314 260.61636695 -118.69921875 256.86328125 C-117.19524135 253.90623371 -115.96499357 250.96908593 -114.90234375 247.8203125 C-113.56919856 244.03438846 -112.09708685 240.39621409 -110.40234375 236.7578125 C-108.05692806 231.7155274 -106.05612121 226.58530319 -104.0859375 221.38671875 C-100.82596255 212.8739942 -97.17573366 204.57063446 -93.26953125 196.3359375 C-91.96004531 193.40211654 -90.81968721 190.44072616 -89.71044922 187.42675781 C-87.91551781 182.69731992 -85.92108327 178.04723947 -83.96484375 173.3828125 C-83.54332031 172.37476563 -83.12179687 171.36671875 -82.6875 170.328125 C-81.83485996 168.2890898 -80.98150519 166.25035333 -80.12744141 164.21191406 C-78.82801816 161.10453333 -77.53700508 157.99373734 -76.24609375 154.8828125 C-74.01890643 149.53441989 -71.70645475 144.22885879 -69.34765625 138.9375 C-67.6068335 134.99691033 -66.01900101 131.02740844 -64.52783203 126.98583984 C-61.80013307 119.63905662 -58.57731834 112.51792085 -55.21484375 105.4453125 C-52.99020724 100.75985223 -51.02948834 96.11783547 -49.5078125 91.15625 C-48.53932974 88.2224835 -47.23407133 85.46871774 -45.9453125 82.6640625 C-44.15255734 78.55909663 -42.63388547 74.35073559 -41.0859375 70.1484375 C-39.83984375 67.1328125 -39.83984375 67.1328125 -38.37109375 64.73046875 C-36.41869235 61.41835923 -35.18542577 57.92692716 -33.90234375 54.3203125 C-32.11938124 49.42955492 -30.29818739 44.70473657 -27.83007812 40.11108398 C-26.75890574 37.97111608 -25.8787587 35.80703721 -25.0078125 33.578125 C-22.85539654 28.13944885 -20.58366511 22.75774694 -18.27734375 17.3828125 C-17.69823242 16.02349609 -17.69823242 16.02349609 -17.10742188 14.63671875 C-10.82509042 -0.02562212 -10.82509042 -0.02562212 0 0 Z " fill="#FBFBFB" transform="translate(365.83984375,57.8671875)"/>
<path d="M0 0 C0.14838088 5.62325477 0.25723031 11.24536946 0.32958984 16.87011719 C0.35975354 18.78307951 0.40069161 20.69590363 0.45263672 22.60839844 C0.52547383 25.35907048 0.5594588 28.10791428 0.5859375 30.859375 C0.61690521 31.71368103 0.64787292 32.56798706 0.67977905 33.44818115 C0.68109936 35.78043216 0.61849383 37.75056134 0 40 C-3.85612205 43.38111898 -8.00835919 44.9281962 -12.8125 46.625 C-20.10820771 49.25761622 -27.30737814 52.09816769 -34.5 55 C-42.5087662 58.22129056 -50.53103664 61.36624769 -58.625 64.3671875 C-64.57786831 66.57932412 -70.5072381 68.85311572 -76.4375 71.125 C-77.5402124 71.54523438 -78.6429248 71.96546875 -79.77905273 72.3984375 C-85.36086437 74.54017231 -90.86231177 76.76014187 -96.27758789 79.29638672 C-98 80 -98 80 -100 80 C-100 80.66 -100 81.32 -100 82 C-98.2675 82.556875 -98.2675 82.556875 -96.5 83.125 C-91.28331082 84.86115365 -86.14720249 86.7945567 -81.00561523 88.73901367 C-77.20363323 90.17644017 -73.39409314 91.58035556 -69.5625 92.9375 C-64.17441024 94.88140664 -58.90506355 97.08766493 -53.6184082 99.28833008 C-46.75352119 102.13219206 -39.8096582 104.73501417 -32.84179688 107.31347656 C-29.00963997 108.74189984 -25.1998136 110.22867955 -21.38671875 111.70703125 C-18.8326103 112.68212917 -16.27473681 113.63622598 -13.70703125 114.57421875 C-12.97742188 114.84234375 -12.2478125 115.11046875 -11.49609375 115.38671875 C-10.06679384 115.91088062 -8.63585204 116.43059205 -7.203125 116.9453125 C-4.29122122 118.01629103 -2.22112846 118.77887154 0 121 C0.18768653 123.9292303 0.25553641 126.76228397 0.23046875 129.69140625 C0.23001053 130.55185043 0.22955231 131.41229462 0.2290802 132.29881287 C0.22605705 134.11873757 0.21816888 135.93865967 0.20581055 137.75854492 C0.18755148 140.55461724 0.18530085 143.35035866 0.18554688 146.14648438 C0.1806319 147.91146122 0.17480367 149.6764358 0.16796875 151.44140625 C0.16685593 152.28304825 0.1657431 153.12469025 0.16459656 153.99183655 C0.11604705 159.88395295 0.11604705 159.88395295 -1 161 C-8.02894597 161.73218187 -12.90031645 159.11672721 -19.03515625 155.94921875 C-23.14225302 153.83443135 -27.15450908 152.23021575 -31.5546875 150.828125 C-36.47701193 149.16113973 -41.22102105 147.03471811 -46 145 C-49.20726439 143.6432963 -52.41595651 142.28998956 -55.625 140.9375 C-56.45386719 140.58816406 -57.28273438 140.23882812 -58.13671875 139.87890625 C-64.72867735 137.10501007 -71.33123766 134.37756109 -78.02734375 131.86328125 C-84.75078327 129.32900024 -91.26633588 126.56211482 -97.734375 123.4296875 C-100.98353926 122.0072065 -104.23026023 120.90081001 -107.59960938 119.80810547 C-111.75488635 118.4092073 -115.80978315 116.76418769 -119.875 115.125 C-120.75124023 114.77348877 -121.62748047 114.42197754 -122.53027344 114.05981445 C-128.00790264 111.84753874 -133.40758796 109.51366425 -138.76171875 107.015625 C-142.11053373 105.4960929 -145.54760713 104.26018903 -149 103 C-150.8161671 102.32224668 -152.62859877 101.63441379 -154.4375 100.9375 C-155.28183594 100.61652344 -156.12617188 100.29554688 -156.99609375 99.96484375 C-159 99 -159 99 -160 97 C-160.30555091 92.32632185 -160.35623092 87.65239875 -160.4050293 82.96972656 C-160.42662996 81.40993131 -160.46075847 79.85025796 -160.50756836 78.29101562 C-160.57452297 76.03981566 -160.60201227 73.79111706 -160.62109375 71.5390625 C-160.64892441 70.84414703 -160.67675507 70.14923157 -160.70542908 69.43325806 C-160.69702148 67.45166016 -160.69702148 67.45166016 -160 64 C-153.5363679 58.59433529 -144.95608041 56.2154718 -137.17578125 53.24609375 C-134.6806698 52.26707708 -132.24619082 51.24344174 -129.8125 50.125 C-124.55971955 47.73120522 -119.16429234 45.70920798 -113.77978516 43.63500977 C-109.55465947 42.0039774 -105.35580051 40.3352255 -101.1875 38.5625 C-94.74490885 35.83748245 -88.19898178 33.38963513 -81.6472168 30.94165039 C-76.78156126 29.11113908 -72.00366782 27.16647571 -67.2668457 25.0246582 C-56.27114386 20.05438781 -45.17011821 15.32335022 -33.83789062 11.17504883 C-27.4351588 8.82307494 -21.13757836 6.23145781 -14.83984375 3.61328125 C-14.19901855 3.34854004 -13.55819336 3.08379883 -12.89794922 2.81103516 C-11.617318 2.26379346 -10.34787815 1.68969605 -9.09033203 1.09130859 C-5.548719 -0.56885194 -3.71678175 -1.1934713 0 0 Z " fill="#FBFAFA" transform="translate(190,107)"/>
<path d="M0 0 C5.34019821 0.43610247 9.65595456 2.45727664 14.4375 4.6875 C24.71582688 9.36862468 35.13766294 13.52800174 45.6875 17.5625 C50.77993806 19.51015597 55.81387035 21.57122812 60.83984375 23.68359375 C64.36128672 25.15049892 67.89600033 26.58240723 71.4375 28 C72.067771 28.25241455 72.69804199 28.5048291 73.34741211 28.76489258 C77.52716597 30.43132338 81.72739049 32.03646331 85.9375 33.625 C90.14935822 35.22951742 94.12596992 37.01177669 98.11328125 39.1015625 C100.89747371 40.42736843 103.79512323 41.29645302 106.73046875 42.2265625 C109.74985064 43.2555429 112.59756912 44.57658379 115.49609375 45.90234375 C119.49786215 47.65662912 123.59188211 49.16381585 127.67578125 50.71484375 C131.79676602 52.30803293 135.86230032 54.01761534 139.9296875 55.7421875 C144.36432257 57.55892095 148.87030253 59.17667884 153.3828125 60.7890625 C156 62 156 62 158 65 C158.21919409 67.49457608 158.32793055 69.87508262 158.3359375 72.37109375 C158.3459227 73.44920067 158.3459227 73.44920067 158.35610962 74.54908752 C158.36622573 76.06793664 158.37092696 77.58683012 158.37060547 79.10571289 C158.3749784 81.42603966 158.41130317 83.74446294 158.44921875 86.06445312 C158.45508732 87.54166017 158.45905644 89.01887624 158.4609375 90.49609375 C158.47530853 91.18787216 158.48967957 91.87965057 158.50448608 92.59239197 C158.47281456 95.94161703 158.23045495 97.70054638 156.1628418 100.38720703 C153.38939774 102.45531533 150.7274108 103.37517126 147.4375 104.4375 C143.15031971 105.87447274 138.96812861 107.37945352 134.875 109.3125 C127.20874723 112.90817608 119.30095824 115.92422611 111.43017578 119.03759766 C108.01236105 120.39112646 104.59969681 121.75738422 101.1875 123.125 C97.50446452 124.60061356 93.82015976 126.07243078 90.12890625 127.52734375 C83.59209592 130.1109207 77.14743587 132.81333729 70.77148438 135.77709961 C68.17598208 136.92234899 65.58212399 137.90466969 62.90625 138.84375 C56.93352731 140.99004058 51.09491522 143.40505043 45.25 145.875 C37.21569476 149.2491977 29.16411186 152.55897927 21.05859375 155.7578125 C18.37140803 156.84915996 15.75067193 158.0201981 13.125 159.25 C8.93543083 161.15362554 4.58524265 162.47801925 0 163 C-1 162 -1 162 -1.11352539 158.21459961 C-1.11336622 156.52717271 -1.10766917 154.83974095 -1.09765625 153.15234375 C-1.0962413 152.2659169 -1.09482635 151.37949005 -1.09336853 150.46620178 C-1.08775215 147.62326746 -1.07519691 144.78041069 -1.0625 141.9375 C-1.05748711 140.01497509 -1.05292384 138.09244896 -1.04882812 136.16992188 C-1.03777741 131.44658451 -1.02050183 126.72330542 -1 122 C2.85728818 119.7367832 6.54524872 117.62262693 10.75 116.0703125 C11.59796143 115.75304199 12.44592285 115.43577148 13.31958008 115.10888672 C14.20411865 114.7842041 15.08865723 114.45952148 16 114.125 C17.87928888 113.42289833 19.75819361 112.71976758 21.63671875 112.015625 C22.55243652 111.67337891 23.4681543 111.33113281 24.41162109 110.97851562 C27.89969649 109.65987705 31.35578562 108.27388335 34.8125 106.875 C43.96187232 103.1891387 53.16641477 99.51450389 62.5625 96.5 C69.16976183 94.36086734 75.56761486 91.60865139 82 89 C83.83290557 88.26975874 85.66617544 87.54043036 87.5 86.8125 C91.36120932 85.26930765 95.18672048 83.65794762 99 82 C91.75109812 77.8604955 84.0984627 75.1607309 76.22167969 72.49975586 C71.37617838 70.85934197 66.69189516 69.04996354 62 67 C59.56672772 66.06845022 57.13189871 65.15097631 54.6875 64.25 C42.71820044 59.79614278 30.78827409 55.23930053 19.02734375 50.2578125 C16.69419474 49.28842672 14.35676923 48.34904383 12.00390625 47.4296875 C11.31901123 47.16099854 10.63411621 46.89230957 9.9284668 46.61547852 C8.58658366 46.09075451 7.24305145 45.57022314 5.89770508 45.05444336 C3.10610203 43.96021188 1.14480269 43.14480269 -1 41 C-1.18776167 37.99864387 -1.25550182 35.09112854 -1.23046875 32.08984375 C-1.23001053 31.20720352 -1.22955231 30.32456329 -1.2290802 29.41517639 C-1.22605687 27.54817359 -1.21816817 25.68117333 -1.20581055 23.81420898 C-1.18755226 20.94571061 -1.18530084 18.07753479 -1.18554688 15.20898438 C-1.18063188 13.39843469 -1.17480364 11.58788721 -1.16796875 9.77734375 C-1.16685593 8.91382797 -1.1657431 8.05031219 -1.16459656 7.16062927 C-1.11604615 1.11604615 -1.11604615 1.11604615 0 0 Z " fill="#FBFBFB" transform="translate(448,106)"/>
<path d="M0 0 C0.33 0 0.66 0 1 0 C1 2.31 1 4.62 1 7 C0.34 7 -0.32 7 -1 7 C-1.33 9.64 -1.66 12.28 -2 15 C-2.66 15 -3.32 15 -4 15 C-4.10957031 15.63808594 -4.21914063 16.27617187 -4.33203125 16.93359375 C-4.49058594 17.75988281 -4.64914062 18.58617187 -4.8125 19.4375 C-4.96332031 20.26121094 -5.11414063 21.08492187 -5.26953125 21.93359375 C-5.51058594 22.61550781 -5.75164062 23.29742187 -6 24 C-6.99 24.33 -7.98 24.66 -9 25 C-9.33 25.66 -9.66 26.32 -10 27 C-9.32057902 22.9536706 -8.09962587 19.32509013 -6.625 15.5 C-6.20476562 14.3965625 -5.78453125 13.293125 -5.3515625 12.15625 C-4.10581132 9.24709696 -2.65610277 6.6882348 -1 4 C-0.30420546 1.80869466 -0.30420546 1.80869466 0 0 Z " fill="#E5E5E5" transform="translate(330,116)"/>
<path d="M0 0 C0.33 1.32 0.66 2.64 1 4 C0.34 4 -0.32 4 -1 4 C-1 6.31 -1 8.62 -1 11 C-1.66 11 -2.32 11 -3 11 C-3 11.99 -3 12.98 -3 14 C-3.66 14 -4.32 14 -5 14 C-5.33 16.31 -5.66 18.62 -6 21 C-6.99 20.67 -7.98 20.34 -9 20 C-8.68546875 19.31035156 -8.3709375 18.62070312 -8.046875 17.91015625 C-5.33405704 11.95339633 -2.64599405 5.98674632 0 0 Z " fill="#D7D7D7" transform="translate(269,263)"/>
<path d="M0 0 C0.66 0 1.32 0 2 0 C1.57316761 1.58624235 1.13303842 3.1689098 0.6875 4.75 C0.44386719 5.63171875 0.20023437 6.5134375 -0.05078125 7.421875 C-1.02125331 10.05772505 -2.21005644 11.85407326 -4 14 C-4.56561146 8.34388537 -2.71391278 4.77357872 0 0 Z " fill="#D8D5D6" transform="translate(309,272)"/>
<path d="M0 0 C2 3 2 3 2 5 C1.34 5 0.68 5 0 5 C0 6.98 0 8.96 0 11 C-1.32 11.33 -2.64 11.66 -4 12 C-3.52309796 10.37433394 -3.04340334 8.74948689 -2.5625 7.125 C-2.29566406 6.22007813 -2.02882813 5.31515625 -1.75390625 4.3828125 C-1 2 -1 2 0 0 Z " fill="#E0E0E0" transform="translate(337,100)"/>
<path d="M0 0 C3.3 0.33 6.6 0.66 10 1 C10 1.99 10 2.98 10 4 C11.65 4 13.3 4 15 4 C15 4.66 15 5.32 15 6 C9.55432314 4.97137215 4.88182883 3.75385216 0 1 C0 0.67 0 0.34 0 0 Z " fill="#DCDCDB" transform="translate(485,162)"/>
<path d="M0 0 C0.33 0 0.66 0 1 0 C1 2.31 1 4.62 1 7 C0.34 7 -0.32 7 -1 7 C-1.33 9.31 -1.66 11.62 -2 14 C-2.99 14 -3.98 14 -5 14 C-3.46527032 9.27775484 -1.76054874 4.64144669 0 0 Z " fill="#D8D8D8" transform="translate(330,116)"/>
<path d="M0 0 C0.66 0.33 1.32 0.66 2 1 C1.39301257 5.12751449 -0.03810791 8.3321148 -2 12 C-2.33 12 -2.66 12 -3 12 C-2.67 9.36 -2.34 6.72 -2 4 C-1.34 4 -0.68 4 0 4 C0 2.68 0 1.36 0 0 Z " fill="#DCDCDC" transform="translate(303,285)"/>
<path d="M0 0 C2.125 0.9375 2.125 0.9375 4 2 C2.5682384 2.69937202 1.12932968 3.38412718 -0.3125 4.0625 C-1.51326172 4.63677734 -1.51326172 4.63677734 -2.73828125 5.22265625 C-5 6 -5 6 -8 5 C-2.25 1.125 -2.25 1.125 0 0 Z " fill="#E0E0DD" transform="translate(525,235)"/>
<path d="M0 0 C2.64 0 5.28 0 8 0 C8.33 0.99 8.66 1.98 9 3 C9.99 3.33 10.98 3.66 12 4 C8.35839192 5.21386936 7.66834531 4.6674695 4.3125 3.0625 C3.10013672 2.49208984 3.10013672 2.49208984 1.86328125 1.91015625 C1.24839844 1.60980469 0.63351563 1.30945313 0 1 C0 0.67 0 0.34 0 0 Z " fill="#D9D7D8" transform="translate(162,258)"/>
<path d="M0 0 C0.66 1.32 1.32 2.64 2 4 C1.34 4 0.68 4 0 4 C-0.33 5.98 -0.66 7.96 -1 10 C-1.66 10 -2.32 10 -3 10 C-2.25 3.375 -2.25 3.375 0 0 Z " fill="#E1E1E1" transform="translate(278,241)"/>
<path d="M0 0 C0.66 0.66 1.32 1.32 2 2 C1.76236269 6.39629018 -0.14143559 8.77258856 -3 12 C-3 10.35 -3 8.7 -3 7 C-2.01 6.67 -1.02 6.34 0 6 C0 4.02 0 2.04 0 0 Z " fill="#E3E3E3" transform="translate(368,130)"/>
<path d="M0 0 C0.99 0.33 1.98 0.66 3 1 C2.34 2.98 1.68 4.96 1 7 C0.01 7 -0.98 7 -2 7 C-1.34 4.69 -0.68 2.38 0 0 Z " fill="#E5E5E5" transform="translate(281,234)"/>
<path d="M0 0 C0.66 0 1.32 0 2 0 C1.39301257 4.12751449 -0.03810791 7.3321148 -2 11 C-2.33 11 -2.66 11 -3 11 C-2.67 8.69 -2.34 6.38 -2 4 C-1.34 4 -0.68 4 0 4 C0 2.68 0 1.36 0 0 Z " fill="#DBDBDA" transform="translate(338,203)"/>
<path d="M0 0 C-1.4562545 0.67119549 -2.91507867 1.33681807 -4.375 2 C-5.59316406 2.556875 -5.59316406 2.556875 -6.8359375 3.125 C-9 4 -9 4 -11 4 C-10.4375 2.0625 -10.4375 2.0625 -9 0 C-2.85365854 -1.42682927 -2.85365854 -1.42682927 0 0 Z " fill="#E4E3E3" transform="translate(105,181)"/>
<path d="M0 0 C2.64 0 5.28 0 8 0 C8 0.66 8 1.32 8 2 C8.66 2 9.32 2 10 2 C10 2.66 10 3.32 10 4 C5.78087253 3.5205537 3.20336822 2.83374881 0 0 Z " fill="#DEDEDE" transform="translate(500,168)"/>
<path d="M0 0 C0 0.66 0 1.32 0 2 C-0.99 2 -1.98 2 -3 2 C-3 2.66 -3 3.32 -3 4 C-5.64 4 -8.28 4 -11 4 C-7.61125486 1.74083657 -4.15175481 0 0 0 Z " fill="#DBDBDB" transform="translate(545,190)"/>
<path d="M0 0 C2.64 0 5.28 0 8 0 C4.31265242 2.45823172 1.30300029 3.01242616 -3 4 C-3 3.34 -3 2.68 -3 2 C-2.01 2 -1.02 2 0 2 C0 1.34 0 0.68 0 0 Z " fill="#DADAD9" transform="translate(125,170)"/>
<path d="M0 0 C2.31 0 4.62 0 7 0 C3.71195019 2.91227269 1.40114397 4.49701212 -3 5 C-3 4.34 -3 3.68 -3 3 C-2.01 3 -1.02 3 0 3 C0 2.01 0 1.02 0 0 Z " fill="#D5D5D5" transform="translate(578,213)"/>
<path d="M0 0 C0.66 1.32 1.32 2.64 2 4 C0.35 5.65 -1.3 7.3 -3 9 C-2.5020163 5.26512223 -2.12508244 3.18762365 0 0 Z " fill="#DEDEDE" transform="translate(298,194)"/>
<path d="M0 0 C2.64 0.33 5.28 0.66 8 1 C8 1.99 8 2.98 8 4 C5.64828869 3.40138258 3.3140622 2.73075648 1 2 C0.67 1.34 0.34 0.68 0 0 Z " fill="#DDDCDB" transform="translate(89,228)"/>
<path d="M0 0 C1.65 0 3.3 0 5 0 C5 0.66 5 1.32 5 2 C6.65 2 8.3 2 10 2 C9.67 2.66 9.34 3.32 9 4 C3.46153846 3.38461538 3.46153846 3.38461538 1.125 1.4375 C0.75375 0.963125 0.3825 0.48875 0 0 Z " fill="#E0E0E0" transform="translate(54,214)"/>
<path d="M0 0 C0.66 0 1.32 0 2 0 C1.46930939 3.82097239 0.50298434 6.06171403 -2 9 C-2 7.02 -2 5.04 -2 3 C-1.34 3 -0.68 3 0 3 C0 2.01 0 1.02 0 0 Z " fill="#D2D2D0" transform="translate(363,144)"/>
<path d="M0 0 C1 2 1 2 0.44140625 3.9453125 C0.15136719 4.66460937 -0.13867188 5.38390625 -0.4375 6.125 C-0.72496094 6.84945312 -1.01242187 7.57390625 -1.30859375 8.3203125 C-1.53675781 8.87460938 -1.76492188 9.42890625 -2 10 C-2.33 10 -2.66 10 -3 10 C-3.36923077 4.58461538 -3.36923077 4.58461538 -1.5 1.625 C-1.005 1.08875 -0.51 0.5525 0 0 Z " fill="#DADADA" transform="translate(390,81)"/>
</svg>
